<svg width="24" height="14" viewBox="0 0 24 14" fill="none" xmlns="http://www.w3.org/2000/svg">
<path d="M19 12V14H7V12C7 12 7 8 13 8C19 8 19 12 19 12ZM16 3C16 2.40666 15.8241 1.82664 15.4944 1.33329C15.1648 0.83994 14.6962 0.45543 14.1481 0.22836C13.5999 0.00130017 12.9967 -0.0581099 12.4147 0.0576501C11.8328 0.1734 11.2982 0.45912 10.8787 0.87868C10.4591 1.29824 10.1734 1.83279 10.0576 2.41473C9.94189 2.99667 10.0013 3.59987 10.2284 4.14805C10.4554 4.69623 10.8399 5.1648 11.3333 5.4944C11.8266 5.8241 12.4067 6 13 6C13.7956 6 14.5587 5.6839 15.1213 5.1213C15.6839 4.55871 16 3.79565 16 3ZM19.2 8.06C19.7466 8.5643 20.1873 9.1724 20.4964 9.8489C20.8054 10.5254 20.9766 11.2566 21 12V14H24V12C24 12 24 8.55 19.2 8.06ZM18 0C17.6979 0.00018 17.3976 0.0474099 17.11 0.14C17.6951 0.97897 18.0087 1.97718 18.0087 3C18.0087 4.02282 17.6951 5.021 17.11 5.86C17.3976 5.9526 17.6979 5.9998 18 6C18.7956 6 19.5587 5.6839 20.1213 5.1213C20.6839 4.55871 21 3.79565 21 3C21 2.20435 20.6839 1.44129 20.1213 0.87868C19.5587 0.31607 18.7956 0 18 0ZM8 5H5V2H3V5H0V7H3V10H5V7H8V5Z" fill="#FF8F1E"/>
</svg>
