<svg width="25" height="31" viewBox="0 0 25 31" fill="none" xmlns="http://www.w3.org/2000/svg">
<path d="M25 9.6761V5.08594C25 4.55085 24.5472 4.11662 23.9899 4.11662H17.2977V0.96875C17.2977 0.434228 16.8455 0 16.2882 0H8.71242C8.15449 0 7.70172 0.434228 7.70172 0.96875V4.11662H1.0101C0.452169 4.11662 0 4.55085 0 5.08594V9.6761C0 10.2106 0.452169 10.6443 1.0101 10.6443H1.30006V30.0313C1.30006 30.5658 1.75223 31 2.30957 31H19.8265C21.9626 31 23.7005 29.3338 23.7005 27.2857V10.6449H23.9893C24.5472 10.6449 25 10.2112 25 9.6761ZM9.72192 1.9375H15.2775V4.11662H9.72192V1.9375ZM21.6809 27.2863C21.6809 28.2658 20.8491 29.0625 19.8271 29.0625H3.32086V10.6449L21.6809 10.646V27.2863ZM22.9792 8.70735H2.01961V6.05469H8.71242H16.2882H22.9798L22.9792 8.70735Z" fill="#FF8F1E"/>
<path d="M8.45871 14.5312H6.43851V25.9141H8.45871V14.5312Z" fill="#FF8F1E"/>
<path d="M13.5092 14.5312H11.489V25.9141H13.5092V14.5312Z" fill="#FF8F1E"/>
<path d="M18.5597 14.5312H16.5395V25.9141H18.5597V14.5312Z" fill="#FF8F1E"/>
</svg>
