<svg width="50" height="50" viewBox="0 0 50 50" fill="none" xmlns="http://www.w3.org/2000/svg">
<path d="M25.167 8.33233C31.1267 8.33244 36.3547 11.4613 39.3008 16.1653H32.7822C30.7384 14.4016 28.0784 13.3324 25.167 13.3323C18.7237 13.3323 13.5 18.556 13.5 24.9993C13.5002 31.4424 18.7238 36.6653 25.167 36.6653C28.1703 36.6653 30.9079 35.5296 32.9756 33.6653H39.4043C36.4782 38.4623 31.1971 41.6652 25.167 41.6653C15.9624 41.6653 8.50021 34.2039 8.5 24.9993C8.5 15.7946 15.9622 8.33233 25.167 8.33233Z" fill="#FF8F1E"/>
<path d="M25 -0.000976562C38.8071 -0.000976562 50 11.1919 50 24.999C50 38.8061 38.8071 49.999 25 49.999C11.1929 49.999 4.32969e-05 38.8061 0 24.999C0 11.1919 11.1929 -0.000976562 25 -0.000976562ZM25 6.33203C14.3225 6.33203 5.66699 14.6528 5.66699 24.916C5.66722 35.1791 14.3226 43.499 25 43.499C35.6774 43.499 44.3328 35.1791 44.333 24.916C44.333 14.6528 35.6775 6.33203 25 6.33203Z" fill="#262626"/>
</svg>
