<svg width="100" height="100" viewBox="0 0 100 100" fill="none" xmlns="http://www.w3.org/2000/svg">
<path d="M50 0C77.6142 0 100 22.3859 100 50C99.9999 77.6141 77.6142 100 50 100C22.3858 100 8.65998e-05 77.6141 0 50C0 22.3859 22.3858 0 50 0Z" fill="#1C173D"/>
<circle cx="51" cy="49" r="33" fill="#757575"/>
<path d="M51.751 12C65.2504 12 77.0923 18.9465 83.7656 29.3896H69.0127C64.382 25.4705 58.3492 23.0996 51.751 23.0996C37.1566 23.0996 25.3253 34.6958 25.3252 49C25.3252 63.3043 37.1565 74.9004 51.751 74.9004C58.5543 74.9004 64.7566 72.3797 69.4404 68.2402H84.002C77.374 78.8903 65.41 86.001 51.751 86.001C30.9017 86.001 14 69.4347 14 49C14.0001 28.5654 30.9018 12 51.751 12Z" fill="#FF8F1E"/>
</svg>
