<svg width="19" height="19" viewBox="0 0 19 19" fill="none" xmlns="http://www.w3.org/2000/svg">
<path d="M9.98628 19C7.31141 19 4.80161 17.9633 2.91914 16.0809C1.03667 14.1985 2.33877e-07 11.6885 2.33877e-07 9.01363C-0.000399078 7.16837 0.510535 5.35909 1.47609 3.78661C2.44165 2.21413 3.82405 0.93996 5.46987 0.105529C5.6392 0.0192136 5.83019 -0.0153164 6.01902 0.00624886C6.20785 0.0278141 6.38614 0.104519 6.53164 0.226789C6.67714 0.349059 6.78341 0.511477 6.83717 0.693769C6.89093 0.87606 6.88981 1.07015 6.83395 1.25181C6.3643 2.76875 6.31815 4.38521 6.70046 5.92648C7.08278 7.46776 7.87903 8.87525 9.00316 9.99686C9.80988 10.8096 10.7698 11.4542 11.8273 11.8934C12.8849 12.3327 14.019 12.5578 15.1641 12.5557C16.0401 12.5564 16.9112 12.425 17.7481 12.166C17.9297 12.1101 18.1239 12.1089 18.3062 12.1627C18.4885 12.2164 18.6509 12.3227 18.7732 12.4682C18.8955 12.6137 18.9722 12.792 18.9938 12.9809C19.0153 13.1697 18.9808 13.3607 18.8944 13.5301C18.06 15.1759 16.7858 16.5583 15.2133 17.5239C13.6408 18.4894 11.8315 19.0004 9.98628 19ZM5.43532 1.5743C4.15907 2.35081 3.10482 3.44355 2.37454 4.7468C1.64426 6.05006 1.26268 7.51972 1.2667 9.01363C1.2667 13.8216 5.17826 17.7333 9.98628 17.7333C11.4802 17.7373 12.9499 17.3558 14.2531 16.6255C15.5564 15.8952 16.6491 14.8409 17.4257 13.5647C16.6841 13.7363 15.9254 13.8228 15.1642 13.8225C13.8527 13.825 12.5537 13.5673 11.3424 13.0644C10.1312 12.5615 9.03167 11.8233 8.10761 10.8926C6.90716 9.69448 6.03184 8.21015 5.56428 6.57979C5.09671 4.94943 5.05233 3.22681 5.43532 1.57454V1.5743Z" fill="white"/>
</svg>
