<svg width="25" height="25" viewBox="0 0 25 25" fill="none" xmlns="http://www.w3.org/2000/svg">
<path d="M3.125 11.7188H0.78125C0.35 11.7188 0 12.0688 0 12.5C0 12.9313 0.35 13.2813 0.78125 13.2813H3.125C3.55625 13.2813 3.90625 12.9313 3.90625 12.5C3.90625 12.0688 3.55625 11.7188 3.125 11.7188ZM12.5 3.90625C12.9313 3.90625 13.2813 3.55625 13.2813 3.125V0.78125C13.2813 0.35 12.9313 0 12.5 0C12.0688 0 11.7188 0.35 11.7188 0.78125V3.125C11.7188 3.55625 12.0688 3.90625 12.5 3.90625ZM20.0164 6.07811L21.6578 4.43668C21.9602 4.13435 21.9602 3.64449 21.6578 3.34216C21.3555 3.03983 20.8656 3.03983 20.5633 3.34216L18.9219 4.98358C18.6195 5.28591 18.6195 5.77578 18.9219 6.07811C19.2242 6.38047 19.7141 6.38047 20.0164 6.07811ZM5.78905 18.1172L4.14763 19.7586C3.8453 20.0609 3.8453 20.5508 4.14763 20.8531C4.44996 21.1555 4.93983 21.1555 5.24216 20.8531L6.88358 19.2117C7.18591 18.9094 7.18591 18.4195 6.88358 18.1172C6.58125 17.8149 6.09142 17.8148 5.78905 18.1172ZM5.31875 6.42345C5.62422 6.72892 6.11875 6.72892 6.42341 6.42345C6.7281 6.11797 6.7281 5.62345 6.42341 5.31879L4.76642 3.66095C4.46095 3.35547 3.96642 3.35547 3.66172 3.66095C3.35625 3.96642 3.35625 4.46095 3.66172 4.76565L5.31875 6.42345ZM12.5 21.0938C12.0688 21.0938 11.7188 21.4438 11.7188 21.875V24.2188C11.7188 24.65 12.0688 25 12.5 25C12.9313 25 13.2813 24.65 13.2813 24.2188V21.875C13.2813 21.4438 12.9313 21.0938 12.5 21.0938ZM19.6813 18.5766C19.3758 18.2711 18.8813 18.2711 18.5766 18.5766C18.2711 18.8821 18.2711 19.3766 18.5766 19.6813L20.2336 21.3383C20.5391 21.6438 21.0336 21.6438 21.3383 21.3383C21.643 21.0328 21.6438 20.5383 21.3383 20.2336L19.6813 18.5766ZM24.2188 11.7188H21.875C21.4438 11.7188 21.0938 12.0688 21.0938 12.5C21.0938 12.9313 21.4438 13.2813 21.875 13.2813H24.2188C24.65 13.2813 25 12.9313 25 12.5C25 12.0688 24.65 11.7188 24.2188 11.7188ZM12.5 5.46405C8.61405 5.46405 5.46405 8.61405 5.46405 12.5C5.46405 16.3859 8.61405 19.5359 12.5 19.5359C16.3859 19.5359 19.5359 16.3859 19.5359 12.5C19.5359 8.61405 16.3859 5.46405 12.5 5.46405ZM12.5 17.9672C9.48047 17.9672 7.0328 15.5195 7.0328 12.5C7.0328 9.48047 9.48047 7.0328 12.5 7.0328C15.5195 7.0328 17.9672 9.48047 17.9672 12.5C17.9672 15.5195 15.5195 17.9672 12.5 17.9672Z" fill="white"/>
</svg>
