<svg width="28" height="26" viewBox="0 0 28 26" fill="none" xmlns="http://www.w3.org/2000/svg">
<path d="M0.932736 26C0.801057 26.0009 0.6707 25.9718 0.550234 25.9149C0.429768 25.8579 0.32192 25.7742 0.233781 25.6694C0.145643 25.5645 0.079208 25.4409 0.0388449 25.3065C-0.00151816 25.1722 -0.0148957 25.0303 -0.000408298 24.89L0.718113 17.89C0.743691 17.6663 0.83905 17.4584 0.988725 17.3L16.255 0.94C16.5323 0.642175 16.8618 0.405893 17.2244 0.244678C17.5871 0.0834631 17.9759 0.000480652 18.3685 0.000480652C18.7612 0.000480652 19.15 0.0834631 19.5126 0.244678C19.8753 0.405893 20.2048 0.642175 20.4821 0.94L23.3842 4.05C23.6621 4.34723 23.8826 4.70028 24.033 5.08894C24.1835 5.47759 24.2609 5.89423 24.2609 6.315C24.2609 6.73577 24.1835 7.1524 24.033 7.54106C23.8826 7.92972 23.6621 8.28277 23.3842 8.58L8.12728 24.93C7.9795 25.0904 7.7855 25.1926 7.57672 25.22L1.04471 25.99L0.932736 26ZM2.54708 18.45L1.98719 23.87L7.04483 23.27L22.0685 7.17C22.1729 7.05852 22.2557 6.92604 22.3122 6.78018C22.3687 6.63432 22.3978 6.47794 22.3978 6.32C22.3978 6.16206 22.3687 6.00568 22.3122 5.85982C22.2557 5.71395 22.1729 5.58148 22.0685 5.47L19.157 2.35C19.053 2.23813 18.9294 2.14936 18.7933 2.0888C18.6572 2.02823 18.5113 1.99705 18.3639 1.99705C18.2165 1.99705 18.0706 2.02823 17.9345 2.0888C17.7983 2.14936 17.6747 2.23813 17.5707 2.35L2.54708 18.45Z" fill="#FF8F1E"/>
<path d="M20.5288 11.21C20.406 11.2108 20.2842 11.1855 20.1705 11.1358C20.0569 11.086 19.9534 11.0127 19.8663 10.92L14.0714 4.69C13.9844 4.59676 13.9154 4.48607 13.8683 4.36425C13.8212 4.24243 13.797 4.11186 13.797 3.98C13.797 3.84814 13.8212 3.71757 13.8683 3.59575C13.9154 3.47393 13.9844 3.36324 14.0714 3.27C14.1584 3.17676 14.2617 3.1028 14.3754 3.05234C14.4891 3.00188 14.6109 2.97591 14.734 2.97591C14.857 2.97591 14.9788 3.00188 15.0925 3.05234C15.2062 3.1028 15.3095 3.17676 15.3965 3.27L21.21 9.5C21.2974 9.59296 21.3669 9.70356 21.4142 9.82542C21.4616 9.94728 21.486 10.078 21.486 10.21C21.486 10.342 21.4616 10.4727 21.4142 10.5946C21.3669 10.7164 21.2974 10.827 21.21 10.92C21.1206 11.0151 21.0141 11.0898 20.8971 11.1397C20.78 11.1895 20.6547 11.2134 20.5288 11.21Z" fill="#FF8F1E"/>
<path d="M14.0763 9.50366L6.81149 17.2889L8.13116 18.7031L15.3959 10.9179L14.0763 9.50366Z" fill="#FF8F1E"/>
<path d="M27.0608 26H12.1305C11.883 26 11.6456 25.8946 11.4706 25.7071C11.2956 25.5196 11.1973 25.2652 11.1973 25C11.1973 24.7348 11.2956 24.4804 11.4706 24.2929C11.6456 24.1054 11.883 24 12.1305 24H27.0608C27.3083 24 27.5456 24.1054 27.7206 24.2929C27.8956 24.4804 27.9939 24.7348 27.9939 25C27.9939 25.2652 27.8956 25.5196 27.7206 25.7071C27.5456 25.8946 27.3083 26 27.0608 26Z" fill="#FF8F1E"/>
</svg>
